<svg height="512" viewBox="0 0 64 64" width="512" xmlns="http://www.w3.org/2000/svg"><g id="flat"><path d="m20 17h4a10 10 0 0 1 10 10v30a4 4 0 0 1 -4 4h-16a4 4 0 0 1 -4-4v-30a10 10 0 0 1 10-10z" fill="#76c3ab"/><path d="m20 3h4v4h-4z" fill="#516ca9"/><path d="m16 7h12v4h-12z" fill="#83bbed"/><path d="m20 11h4v6h-4z" fill="#516ca9"/><path d="m12 5h4v8h-4z" fill="#5f96d0"/><path d="m10 27v2h24v-2a10 10 0 0 0 -10-10h-4a10 10 0 0 0 -10 10z" fill="#76c3ab"/><path d="m10 29h24v6h-24z" fill="#516ca9"/><path d="m18 46a3 3 0 0 1 -3-3v-2a3 3 0 0 1 6 0v2a3 3 0 0 1 -3 3zm0-6a1 1 0 0 0 -1 1v2a1 1 0 0 0 2 0v-2a1 1 0 0 0 -1-1z" fill="#fff69a"/><path d="m29 46h-5a1 1 0 0 1 -1-1v-1a1 1 0 0 1 .4-.8l3.6-2.7v-.5h-2v1h-2v-2a1 1 0 0 1 1-1h4a1 1 0 0 1 1 1v2a1 1 0 0 1 -.4.8l-2.933 2.2h3.333z" fill="#fff69a"/><g fill="#f4f4e6"><path d="m31 29h-2v-2a5.006 5.006 0 0 0 -5-5h-1v-2h1a7.008 7.008 0 0 1 7 7z"/><path d="m30 58h-4v-2h3v-5h2v6a1 1 0 0 1 -1 1z"/><path d="m22 56h2v2h-2z"/></g><path d="m47 48h-7a3 3 0 0 1 -3-3v-34a1 1 0 0 0 -1-1h-8v-2h8a3 3 0 0 1 3 3v34a1 1 0 0 0 1 1h7a1 1 0 0 0 1-1v-6h2v6a3 3 0 0 1 -3 3z" fill="#32b1cc"/><circle cx="49" cy="33" fill="#5f96d0" r="7"/><path d="m46 29.586h2v2.828h-2z" fill="#83bbed" transform="matrix(.707 -.707 .707 .707 -8.154 42.314)"/><circle cx="49" cy="33" fill="#37507c" r="2"/></g></svg>