<svg id="filled_outline" height="512" viewBox="0 0 512 512" width="512" xmlns="http://www.w3.org/2000/svg" data-name="filled outline"><path d="m320 88h96a48 48 0 0 1 48 48v88h24l-40 48-40-48h24v-88a16 16 0 0 0 -16-16h-96z" fill="#ffc431"/><path d="m368 199.24v80.76h-128v-80.76a86.4357 86.4357 0 0 1 20-55.24 86.34675 86.34675 0 0 0 20-55.24v-32.76h48v32.76a86.30022 86.30022 0 0 0 20 55.24 86.42592 86.42592 0 0 1 10.98 16.85 85.071 85.071 0 0 1 3.86005 9.01 86.16044 86.16044 0 0 1 5.15995 29.38z" fill="#b9cd2a"/><path d="m224 64v80l40 40v96h-120v-96l40-40v-80z" fill="#cde046"/><path d="m288 24h32v32h-32z" fill="#b1712c"/><path d="m358.98 160.85-40.83 34.03a22.10212 22.10212 0 0 1 -21.67 3.79993 21.8428 21.8428 0 0 1 -6.63-3.79993l-40.83-34.03a86.42592 86.42592 0 0 1 10.98-16.85 86.34393 86.34393 0 0 0 14.84-25.86q1.095-3.03 1.97-6.14h54.38a86.27476 86.27476 0 0 0 16.81 32 86.42592 86.42592 0 0 1 10.98 16.85z" fill="#cde046"/><path d="m264 408v80h-240v-64h96v-16z" fill="#e0edff"/><path d="m104 424h16v64h-16z" fill="#d1e4ff"/><path d="m56 456h32v32h-32z" fill="#b2c6eb"/><path d="m176 440h32v48h-32z" fill="#b2c6eb"/><path d="m48 424 16-104h16l16 104z" fill="#d1e4ff"/><g fill="#b2c6eb"><path d="m80 320 4.92854-19.71414a35.669 35.669 0 0 1 13.20264-19.88424 35.66908 35.66908 0 0 0 11.71646-41.78242l-5.84764-14.6192h-72l6.0316 9.04741a25.39985 25.39985 0 0 1 -.81407 29.32922 25.39985 25.39985 0 0 0 2.35947 33.20037l24.423 24.423"/><path d="m120 408v-40l48 40z"/><path d="m168 408v-40l48 40z"/><path d="m216 408v-32h9.6l38.4 32z"/></g><path d="m64 224v-128a48 48 0 0 1 48-48h80v-24l48 40-48 40v-24h-80a16 16 0 0 0 -16 16v128z" fill="#ffc431"/><path d="m392 400h-144v24l-48-40 48-40v24h144z" fill="#ffc431"/><path d="m344 328h144v32h-144z" fill="#c1d439"/><path d="m368 328 8-24h80l8 24z" fill="#acc221"/><path d="m360 360 24 40h88v-40z" fill="#acc221"/><path d="m384 400h88v88h-88z" fill="#b9cd2a"/><circle cx="384" cy="464" fill="#62798c" r="24"/><path d="m144 288h120a7.99977 7.99977 0 0 0 8-8v-96a7.99877 7.99877 0 0 0 -2.34326-5.65674l-37.65674-37.65726v-28.686h-16v32a7.99877 7.99877 0 0 0 2.34326 5.65674l34.34284 34.34326h-36.6861v16h40v40h-72v16h72v16h-104v-16h16v-16h-16v-40h16v-16h-12.6861l34.34284-34.34326a7.99877 7.99877 0 0 0 2.34326-5.65674v-16h-16v12.686l-37.65674 37.65722a7.99877 7.99877 0 0 0 -2.34326 5.65678v96a7.99977 7.99977 0 0 0 8 8z"/><path d="m184 184h16v16h-16z"/><path d="m376 280v-80.75879a94.46458 94.46458 0 0 0 -21.85449-60.36279 78.437 78.437 0 0 1 -18.14551-50.11963v-32.75879a7.99977 7.99977 0 0 0 -8-8v-24a7.99977 7.99977 0 0 0 -8-8h-32a7.99977 7.99977 0 0 0 -8 8v24a7.99977 7.99977 0 0 0 -8 8v32.75879a77.85722 77.85722 0 0 1 -14.5166 45.41211l13.0332 9.28125a94.27659 94.27659 0 0 0 12.16992-23.45215h42.66736a94.31132 94.31132 0 0 0 16.50061 29.12158 77.98387 77.98387 0 0 1 6.93994 9.80249l-35.76953 29.80835a14.097 14.097 0 0 1 -18.0498 0l-10.24219 12.292a30.097 30.097 0 0 0 38.53467 0l32.5025-27.08545a78.27009 78.27009 0 0 1 4.22992 25.30224v72.75879h-72v16h80a7.99977 7.99977 0 0 0 8-8zm-80-248h16v16h-16zm-9.23468 72a95.00146 95.00146 0 0 0 1.23468-15.24121v-24.75879h32v24.75879a93.95191 93.95191 0 0 0 1.26337 15.24121z"/><path d="m24 496h240a7.99977 7.99977 0 0 0 8-8v-48h-16v40h-40v-40a7.99977 7.99977 0 0 0 -8-8h-32a7.99977 7.99977 0 0 0 -8 8v40h-40v-64h64v-16h-21.10321l-45.77521-38.146a8.00032 8.00032 0 0 0 -13.12158 6.146v48h-9.1369l-14.7111-95.62244 4.538-18.15149a27.75177 27.75177 0 0 1 10.24121-15.4248 43.74024 43.74024 0 0 0 14.34418-51.15327l-5.84766-14.61914-14.85546 5.94238 5.84765 14.61914a27.71537 27.71537 0 0 1 -9.08838 32.41162 43.79662 43.79662 0 0 0 -16.16406 24.34326l-3.41376 13.65474h-6.44024l-22.07959-22.07959a17.48579 17.48579 0 0 1 -1.61621-22.74414 33.45079 33.45079 0 0 0 1.07032-38.56641l-6.03174-9.04736-13.3125 8.875 6.03174 9.04736a17.42618 17.42618 0 0 1 -.55811 20.0918 33.56386 33.56386 0 0 0 3.103 43.65723l21.55646 21.55639-14.33995 93.20972h-17.1369a7.99977 7.99977 0 0 0 -8 8v64a7.99977 7.99977 0 0 0 8 8zm56-16h-16v-16h16zm104-32h16v32h-16zm-38.09674-48h-17.90326v-14.91943zm-75.04-72h2.27344l13.53863 88h-29.35068zm-38.86326 104h80v48h-16v-24a7.99977 7.99977 0 0 0 -8-8h-32a7.99977 7.99977 0 0 0 -8 8v24h-16z"/><path d="m408 216a8 8 0 0 0 -6.14551 13.12158l40 48a7.99963 7.99963 0 0 0 12.291 0l40-48a8 8 0 0 0 -6.14549-13.12158h-16v-80a56.06353 56.06353 0 0 0 -56-56h-64v16h64a40.04521 40.04521 0 0 1 40 40v88a7.99977 7.99977 0 0 0 8 8h6.91992l-22.91992 27.50342-22.91992-27.50342h6.91992a7.99977 7.99977 0 0 0 8-8v-88a24.0275 24.0275 0 0 0 -24-24h-48v16h48a8.00917 8.00917 0 0 1 8 8v80z"/><path d="m192 72h-80a24.0275 24.0275 0 0 0 -24 24v104h16v-104a8.00917 8.00917 0 0 1 8-8h72v16a8 8 0 0 0 13.12158 6.14551l48-40a7.99963 7.99963 0 0 0 0-12.291l-48-40a8 8 0 0 0 -13.12158 6.14549v16h-72a56.06353 56.06353 0 0 0 -56 56v104h16v-104a40.04521 40.04521 0 0 1 40-40h80a7.99977 7.99977 0 0 0 8-8v-6.91992l27.50342 22.91992-27.50342 22.91992v-6.91992a7.99977 7.99977 0 0 0 -8-8z"/><path d="m488 320h-18.23407l-6.17657-18.52979a8.00011 8.00011 0 0 0 -7.58936-5.47021h-80a8.00011 8.00011 0 0 0 -7.58936 5.47021l-6.17657 18.52979h-18.23407a7.99977 7.99977 0 0 0 -8 8v32a7.99977 7.99977 0 0 0 8 8h11.4707l20.5293 34.21558v30.797a32 32 0 1 0 16 0v-25.01258h72v64h-40v16h48a7.99977 7.99977 0 0 0 8-8v-112h8a7.99977 7.99977 0 0 0 8-8v-32a7.99977 7.99977 0 0 0 -8-8zm-106.23389-8h68.46778l2.66674 8h-73.80126zm18.23389 152a16 16 0 1 1 -16-16 16.01833 16.01833 0 0 1 16 16zm64-72h-75.4707l-14.4-24h89.8707zm16-40h-128v-16h128z"/><path d="m248 376h72v-16h-64v-16a8.00032 8.00032 0 0 0 -13.12158-6.146l-48 40a8.00068 8.00068 0 0 0 0 12.292l48 40a8.00032 8.00032 0 0 0 13.12158-6.146v-16h96v-16h-104a7.99977 7.99977 0 0 0 -8 8v6.91992l-27.50342-22.91992 27.50342-22.91992v6.91992a7.99977 7.99977 0 0 0 8 8z"/></svg>