<svg id="Layer_1" enable-background="new 0 0 512 512" height="512" viewBox="0 0 512 512" width="512" xmlns="http://www.w3.org/2000/svg"><g><g fill="#cbc4cc"><path d="m112.345 299.449c-4.142 0-7.5 3.357-7.5 7.5v153.153c0 4.143 3.358 7.5 7.5 7.5s7.5-3.357 7.5-7.5v-153.153c0-4.142-3.358-7.5-7.5-7.5z"/><path d="m270.578 299.449c-4.142 0-7.5 3.357-7.5 7.5v153.153c0 4.143 3.358 7.5 7.5 7.5s7.5-3.357 7.5-7.5v-153.153c0-4.142-3.358-7.5-7.5-7.5z"/><path d="m428.811 299.449c-4.142 0-7.5 3.357-7.5 7.5v153.153c0 4.143 3.358 7.5 7.5 7.5s7.5-3.357 7.5-7.5v-153.153c0-4.142-3.358-7.5-7.5-7.5z"/></g><g fill="#7a6d79"><path d="m136.04 490.154h-47.389v-16.271c0-13.086 10.608-23.694 23.694-23.694 13.086 0 23.694 10.608 23.694 23.694v16.271z"/><path d="m294.272 490.154h-47.388v-16.271c0-13.086 10.608-23.694 23.694-23.694 13.086 0 23.694 10.608 23.694 23.694z"/><path d="m452.505 490.154h-47.388v-16.271c0-13.086 10.608-23.694 23.694-23.694 13.086 0 23.694 10.608 23.694 23.694z"/><path d="m191.009 235.561-164.63 164.629c-6.035 6.035-15.819 6.035-21.853 0-6.035-6.035-6.035-15.819 0-21.853l164.629-164.629c6.035-6.035 15.819-6.035 21.853 0 6.035 6.034 6.035 15.818.001 21.853z"/><path d="m349.241 235.561-164.629 164.629c-6.035 6.035-15.819 6.035-21.853 0-6.035-6.035-6.035-15.819 0-21.853l164.629-164.629c6.035-6.035 15.819-6.035 21.853 0 6.035 6.034 6.035 15.818 0 21.853z"/><path d="m507.474 235.561-164.629 164.629c-6.035 6.035-15.819 6.035-21.853 0-6.035-6.035-6.035-15.819 0-21.853l164.629-164.629c6.035-6.035 15.819-6.035 21.853 0 6.035 6.034 6.035 15.818 0 21.853z"/></g><circle cx="110.518" cy="110.519" fill="#ffd15b" r="47.388"/><path d="m110.518 63.13c-5.413 0-10.608.92-15.453 2.591 18.582 6.409 31.936 24.038 31.936 44.797s-13.354 38.388-31.936 44.797c4.845 1.671 10.04 2.591 15.453 2.591 26.172 0 47.388-21.217 47.388-47.388s-21.216-47.388-47.388-47.388z" fill="#ffc344"/><g fill="#ffc344"><path d="m110.518 0c-4.142 0-7.5 3.357-7.5 7.5v12.362c0 4.143 3.358 7.5 7.5 7.5s7.5-3.357 7.5-7.5v-12.362c0-4.143-3.358-7.5-7.5-7.5z"/><path d="m110.518 193.674c-4.142 0-7.5 3.357-7.5 7.5v12.362c0 4.143 3.358 7.5 7.5 7.5s7.5-3.357 7.5-7.5v-12.362c0-4.143-3.358-7.5-7.5-7.5z"/><path d="m178.059 32.37-8.741 8.742c-2.929 2.929-2.928 7.678 0 10.606 1.465 1.464 3.384 2.196 5.303 2.196s3.839-.732 5.304-2.197l8.741-8.742c2.929-2.929 2.928-7.678 0-10.606-2.93-2.928-7.678-2.929-10.607.001z"/><path d="m41.111 169.318-8.741 8.742c-2.929 2.929-2.928 7.678 0 10.606 1.465 1.464 3.384 2.196 5.303 2.196s3.839-.732 5.304-2.197l8.741-8.742c2.929-2.929 2.928-7.678 0-10.606-2.93-2.927-7.678-2.928-10.607.001z"/><path d="m213.536 103.019h-12.362c-4.142 0-7.5 3.357-7.5 7.5s3.358 7.5 7.5 7.5h12.362c4.142 0 7.5-3.357 7.5-7.5s-3.358-7.5-7.5-7.5z"/><path d="m19.862 103.019h-12.362c-4.142 0-7.5 3.357-7.5 7.5s3.358 7.5 7.5 7.5h12.362c4.142 0 7.5-3.357 7.5-7.5s-3.358-7.5-7.5-7.5z"/><path d="m179.925 169.318c-2.93-2.93-7.678-2.929-10.607-.001-2.929 2.929-2.929 7.678 0 10.606l8.741 8.742c1.465 1.465 3.384 2.197 5.304 2.197s3.839-.732 5.303-2.196c2.929-2.929 2.929-7.678 0-10.606z"/><path d="m42.977 32.37c-2.93-2.93-7.678-2.929-10.607-.001-2.929 2.929-2.929 7.678 0 10.606l8.741 8.742c1.465 1.465 3.384 2.197 5.304 2.197s3.839-.732 5.303-2.196c2.929-2.929 2.929-7.678 0-10.606z"/></g><path d="m496.547 512h-481.094c-8.535 0-15.453-6.918-15.453-15.453 0-8.534 6.918-15.453 15.453-15.453h481.095c8.534 0 15.453 6.918 15.453 15.453-.001 8.535-6.919 15.453-15.454 15.453z" fill="#97da7b"/><path d="m496.547 481.095h-30.905c8.534 0 15.453 6.919 15.453 15.453s-6.919 15.453-15.453 15.453h30.905c8.534 0 15.453-6.919 15.453-15.453 0-8.535-6.919-15.453-15.453-15.453z" fill="#80d261"/></g></svg>