<svg height="512" viewBox="0 0 64 64" width="512" xmlns="http://www.w3.org/2000/svg"><g id="Layer_20" data-name="Layer 20"><path d="m39.452 56c0 3.314-3.134 6-7 6s-7-2.686-7-6v-1h14z" fill="#747574"/><path d="m51.452 28a19 19 0 1 0 -32.38 13.469 7.808 7.808 0 0 1 2.38 5.531v4a5 5 0 0 0 5 5h12a5 5 0 0 0 5-5v-4a7.765 7.765 0 0 1 2.358-5.51 18.9 18.9 0 0 0 5.642-13.49z" fill="#f2c14e"/><path d="m30.244 9.125a18.788 18.788 0 0 0 -9.844 4.208 24 24 0 0 0 23.052 30.667c.214 0 .425-.011.638-.016a8.06 8.06 0 0 1 1.72-2.494 18.988 18.988 0 0 0 -15.566-32.365z" fill="#f8d858"/><path d="m47.452 26-4.264 3.316a17.484 17.484 0 0 1 -10.736 3.684 17.482 17.482 0 0 1 -10.736-3.684l-4.264-3.316 4.264-3.316a17.482 17.482 0 0 1 10.736-3.684 17.484 17.484 0 0 1 10.736 3.684z" fill="#d9d9d9"/><path d="m32.452 19a17.482 17.482 0 0 0 -10.736 3.684l-.836.649 3.836 2.983a17.486 17.486 0 0 0 21.472 0l.835-.649-3.835-2.983a17.484 17.484 0 0 0 -10.736-3.684z" fill="#fff"/><circle cx="32.452" cy="26" fill="#745749" r="7"/><path d="m32.452 19a6.964 6.964 0 0 0 -3.214.786 6.993 6.993 0 0 0 9.428 9.428 6.993 6.993 0 0 0 -6.214-10.214z" fill="#886f65"/><circle cx="32.452" cy="26" fill="#747574" r="4"/><path d="m32.452 22a3.986 3.986 0 0 0 -3.775 2.732 7 7 0 0 0 5.043 5.043 3.989 3.989 0 0 0 -1.268-7.775z" fill="#9d9e9d"/><g fill="#f8d858"><path d="m31.452 1h2v5h-2z"/><path d="m54.452 26h5v2h-5z"/><path d="m5.452 26h5v2h-5z"/><path d="m47.416 8.5h7.071v2h-7.071z" transform="matrix(.707 -.707 .707 .707 8.206 38.811)"/><path d="m12.952 5.964h2v7.071h-2z" transform="matrix(.707 -.707 .707 .707 -2.631 12.648)"/><path d="m51.952 39.964h2v7.071h-2z" transform="matrix(.707 -.707 .707 .707 -15.25 50.183)"/><path d="m8.416 42.5h7.071v2h-7.071z" transform="matrix(.707 -.707 .707 .707 -27.259 21.192)"/></g><path d="m35.452 24a2 2 0 1 1 -2.42-1.95 3.955 3.955 0 0 1 2.23 1.11 1.954 1.954 0 0 1 .19.84z" fill="#bcbdbc"/><path d="m43.452 48v3a4.712 4.712 0 0 1 -.1 1h-21.8a4.712 4.712 0 0 1 -.1-1v-3z" fill="#747574"/><path d="m26.452 50h17v-2h-19a2 2 0 0 0 2 2z" fill="#9d9e9d"/><path d="m43.352 52a5.005 5.005 0 0 1 -4.9 4h-12a5 5 0 0 1 -4.9-4z" fill="#bcbdbc"/><path d="m26.452 54h16a5.014 5.014 0 0 0 .9-2h-18.9a2 2 0 0 0 2 2z" fill="#dfe0df"/></g></svg>